<svg width="20" height="20" viewBox="0 0 20 20" fill="none" xmlns="http://www.w3.org/2000/svg">
<path d="M10.204 8.18181V12.0545H15.6957C15.4545 13.3 14.7309 14.3546 13.6455 15.0636L16.9572 17.5818C18.8868 15.8365 20 13.2728 20 10.2274C20 9.51828 19.935 8.8364 19.8144 8.18192L10.204 8.18181Z" fill="#4285F4"/>
<path d="M4.48526 11.9034L3.73834 12.4637L1.09448 14.4818C2.77353 17.7454 6.21487 20 10.2038 20C12.9588 20 15.2686 19.1091 16.957 17.5819L13.6453 15.0637C12.7362 15.6637 11.5766 16.0273 10.2038 16.0273C7.55068 16.0273 5.29654 14.2728 4.48943 11.9091L4.48526 11.9034Z" fill="#34A853"/>
<path d="M1.09455 5.51816C0.39885 6.86355 0 8.38176 0 9.99991C0 11.6181 0.39885 13.1363 1.09455 14.4817C1.09455 14.4907 4.48982 11.8998 4.48982 11.8998C4.28574 11.2998 4.16511 10.6635 4.16511 9.9998C4.16511 9.33608 4.28574 8.69976 4.48982 8.09976L1.09455 5.51816Z" fill="#FBBC05"/>
<path d="M10.204 3.98181C11.7068 3.98181 13.0426 4.49089 14.1094 5.47272L17.0315 2.60912C15.2596 0.990969 12.9591 0 10.204 0C6.21508 0 2.77353 2.24545 1.09448 5.51818L4.48965 8.1C5.29666 5.73634 7.55089 3.98181 10.204 3.98181Z" fill="#EA4335"/>
</svg>
