<svg width="20" height="20" viewBox="0 0 20 20" fill="none" xmlns="http://www.w3.org/2000/svg">
<path d="M14.9949 0H5.00509C2.24522 0 0 2.34495 0 5.22741V14.7726C0 17.6551 2.24522 20 5.00509 20H14.9949C17.7548 20 20 17.6551 20 14.7726V5.22741C20 2.34495 17.7548 0 14.9949 0ZM1.76564 5.22741C1.76564 3.36208 3.21909 1.84406 5.00509 1.84406H14.9949C16.7809 1.84406 18.2344 3.36208 18.2344 5.22741V14.7726C18.2344 16.6379 16.7809 18.1559 14.9949 18.1559H5.00509C3.21909 18.1559 1.76564 16.6379 1.76564 14.7726V5.22741Z" fill="black"/>
<path d="M10 14.861C12.5665 14.861 14.6556 12.6802 14.6556 9.9986C14.6556 7.31697 12.5676 5.13623 10 5.13623C7.43242 5.13623 5.34442 7.31697 5.34442 9.9986C5.34442 12.6802 7.43242 14.861 10 14.861ZM10 6.98148C11.5937 6.98148 12.89 8.33528 12.89 9.99978C12.89 11.6643 11.5937 13.0181 10 13.0181C8.4063 13.0181 7.11006 11.6643 7.11006 9.99978C7.11006 8.33528 8.4063 6.98148 10 6.98148Z" fill="black"/>
<path d="M15.0865 5.92196C15.7776 5.92196 16.3409 5.33484 16.3409 4.61186C16.3409 3.88888 15.7788 3.30176 15.0865 3.30176C14.3943 3.30176 13.8322 3.88888 13.8322 4.61186C13.8322 5.33484 14.3943 5.92196 15.0865 5.92196Z" fill="black"/>
</svg>
