<svg width="11" height="2" viewBox="0 0 11 2" fill="none" xmlns="http://www.w3.org/2000/svg">
<path d="M10.9551 1.12133C10.9552 1.19648 10.9405 1.2709 10.9118 1.34035C10.8831 1.40979 10.8409 1.47289 10.7878 1.52603C10.7347 1.57916 10.6716 1.62129 10.6021 1.65001C10.5327 1.67872 10.4583 1.69345 10.3831 1.69336L0.687757 1.69336C0.536046 1.69336 0.390549 1.63309 0.283274 1.52582C0.175998 1.41854 0.115731 1.27304 0.115731 1.12133C0.115731 0.969622 0.175998 0.824125 0.283273 0.716849C0.390549 0.609573 0.536046 0.549306 0.687757 0.549306L10.3831 0.549306C10.4583 0.549211 10.5327 0.563942 10.6021 0.592656C10.6716 0.621369 10.7347 0.6635 10.7878 0.716637C10.8409 0.769773 10.8831 0.83287 10.9118 0.902314C10.9405 0.971758 10.9552 1.04619 10.9551 1.12133V1.12133Z" fill="black"/>
</svg>
