<svg width="20" height="20" viewBox="0 0 20 20" fill="none" xmlns="http://www.w3.org/2000/svg">
<path d="M20 4.84268V8.28984C19.3046 8.231 18.4011 8.09415 17.4016 7.77693C16.0965 7.3625 15.1251 6.79586 14.4888 6.35712V13.3244L14.4726 13.3026C14.4829 13.4408 14.4888 13.5815 14.4888 13.7235C14.4888 17.1834 11.2394 20 7.24441 20C3.24943 20 0 17.1834 0 13.7235C0 10.2635 3.24943 7.44564 7.24441 7.44564C7.63564 7.44564 8.01949 7.4725 8.39448 7.52494V10.9222C8.03426 10.8109 7.64745 10.7508 7.24441 10.7508C5.35321 10.7508 3.81339 12.0837 3.81339 13.7235C3.81339 15.3633 5.35321 16.6961 7.24441 16.6961C9.1356 16.6961 10.6754 15.362 10.6754 13.7235C10.6754 13.6621 10.674 13.6007 10.6695 13.5393V0H14.6453C14.6601 0.291635 14.6734 0.585833 14.6881 0.877468C14.7147 1.45178 14.9509 2.00307 15.3628 2.45459C15.8456 2.98542 16.5586 3.60194 17.5596 4.0944C18.4971 4.55359 19.377 4.75185 20 4.84523V4.84268Z" fill="black"/>
</svg>
