<svg width="20" height="20" viewBox="0 0 20 20" fill="none" xmlns="http://www.w3.org/2000/svg">
<path d="M12.9941 14.642C9.06468 14.642 5.86777 11.3357 5.8667 7.27322C5.86777 6.24342 6.67884 5.40601 7.67276 5.40601C7.77495 5.40601 7.87605 5.4149 7.97286 5.4327C8.18585 5.4694 8.38808 5.54391 8.57417 5.65623C8.60107 5.67291 8.61935 5.6996 8.62365 5.73074L9.03886 8.43648C9.04424 8.46873 9.03456 8.49987 9.01412 8.52322C8.785 8.78568 8.49242 8.97473 8.16649 9.06926L8.00944 9.11486L8.0686 9.27166C8.60428 10.6818 9.69502 11.8084 11.0601 12.3644L11.2117 12.4267L11.2558 12.2643C11.3473 11.9274 11.5301 11.6249 11.784 11.388C11.8023 11.3702 11.827 11.3613 11.8517 11.3613C11.8571 11.3613 11.8625 11.3613 11.869 11.3624L14.4861 11.7917C14.5173 11.7972 14.5431 11.815 14.5592 11.8428C14.6668 12.0352 14.7389 12.2454 14.7754 12.4656C14.7926 12.5635 14.8002 12.6669 14.8002 12.7748C14.8002 13.8035 13.9902 14.6409 12.9941 14.642Z" fill="black"/>
<path d="M19.9624 9.1081C19.7504 6.63256 18.6533 4.33608 16.873 2.64235C15.082 0.938612 12.7586 0 10.3286 0C4.99543 0 0.656171 4.48621 0.656171 10C0.656171 11.8505 1.1499 13.6532 2.08466 15.2235L0 19.9944L6.67456 19.2593C7.83521 19.7509 9.06362 20 10.3275 20C10.6599 20 11.0009 19.9822 11.343 19.9455C11.6442 19.9121 11.9486 19.8632 12.2476 19.8009C16.7138 18.8679 19.9742 14.7698 20 10.0534V10C20 9.69973 19.9871 9.39947 19.9613 9.1081H19.9624ZM6.93165 17.1653L3.23886 17.5723L4.34143 15.0467L4.12091 14.7409C4.10478 14.7186 4.08864 14.6964 4.07036 14.6708C3.11301 13.304 2.60743 11.6893 2.60743 10.0011C2.60743 5.59942 6.0711 2.01846 10.3286 2.01846C14.3172 2.01846 17.6981 5.23576 18.024 9.34275C18.0412 9.56294 18.0509 9.78425 18.0509 10.0022C18.0509 10.0645 18.0498 10.1257 18.0487 10.1913C17.967 13.8734 15.4789 17.0007 11.9981 17.7969C11.7324 17.8581 11.4602 17.9048 11.1892 17.9348C10.9073 17.9682 10.618 17.9849 10.3308 17.9849C9.30781 17.9849 8.31389 17.7802 7.37482 17.3754C7.27048 17.3321 7.16829 17.2854 7.07255 17.2375L6.93272 17.1675L6.93165 17.1653Z" fill="black"/>
</svg>
